<svg width="29px" height="36px" viewBox="0 0 29 36" version="1.1" xmlns="http://www.w3.org/2000/svg" xmlns:xlink="http://www.w3.org/1999/xlink">
    <!-- Generator: Sketch 49 (51002) - http://www.bohemiancoding.com/sketch -->
    <desc>Created with Sketch.</desc>
    <defs></defs>
    <g id="Web-for-development" stroke="none" stroke-width="1" fill="none" fill-rule="evenodd">
        <g transform="translate(-336.000000, -1861.000000)" fill="#000000" fill-rule="nonzero" id="CTA">
            <g transform="translate(0.000000, 1583.000000)">
                <g id="Social-links" transform="translate(195.000000, 274.000000)">
                    <g id="git" transform="translate(141.000000, 4.000000)">
                        <path d="M1.62738236,16.0978836 C1.57089798,16.0978836 2.2392183,17.5115164 2.25749955,17.5115164 C3.71566361,20.1127274 6.52687455,21.7305008 11.2679292,22.1788602 C10.5914058,22.6838211 9.77835892,23.6410086 9.66527298,24.7478445 C8.81496048,25.2879617 7.10343705,25.4667899 5.7735933,25.0547586 C3.90960892,24.4760867 3.19664017,20.8499539 0.405468297,21.3669852 C-0.198398891,21.4779617 -0.0792192033,21.8698367 0.443788609,22.203118 C1.29410111,22.7441727 2.09496048,23.4208133 2.71183548,24.861868 C3.18656205,25.9684695 4.18417923,27.9447195 7.33687455,27.9447195 C8.5889058,27.9447195 9.4654683,27.7963602 9.4654683,27.7963602 C9.4654683,27.7963602 9.48972611,30.6208133 9.48972611,31.7185086 C9.48972611,32.9857742 7.74972611,33.3421414 7.74972611,33.9510477 C7.74972611,34.1913992 8.32628861,34.2147195 8.7876558,34.2147195 C9.70160111,34.2147195 11.604023,33.4653055 11.604023,32.1485867 C11.604023,31.1035086 11.6211324,27.5895242 11.6211324,26.9724149 C11.6211324,25.6283914 12.3542574,25.2022977 12.3542574,25.2022977 C12.3542574,25.2022977 12.4450777,32.3779227 12.179648,33.3422586 C11.866523,34.473118 11.3030855,34.3126883 11.3030855,34.8176492 C11.3030855,35.5688211 13.5932808,35.0032742 14.3526558,33.3532742 C14.9383589,32.0728836 14.6818355,25.0295633 14.6818355,25.0295633 L15.3079683,25.0165555 C15.3079683,25.0165555 15.3423042,28.2399149 15.3210933,29.7141336 C15.2997652,31.2399149 15.1938277,33.1695242 16.1157417,34.0796024 C16.7216011,34.6783133 18.6847261,35.7276102 18.6847261,34.7680789 C18.6847261,34.2107352 17.6091792,33.7534695 17.6091792,32.2446805 L17.6091792,25.3003836 C18.4686324,25.3003836 18.3392574,27.5834305 18.3392574,27.5834305 L18.4018355,31.8266727 C18.4018355,31.8266727 18.2119917,33.3716727 20.103398,34.0177274 C20.770898,34.2480008 22.1967183,34.3106961 22.2643355,33.925032 C22.3319527,33.5391336 20.5456636,32.9646805 20.5294917,31.7700711 C20.5183589,31.0388211 20.562773,30.6128445 20.562773,27.4401102 C20.562773,24.2671414 20.1285933,23.0947977 18.617812,22.1606961 C23.279062,21.6900711 26.1650386,20.556282 27.5705855,17.5217117 C27.6798042,17.5246414 28.1442183,16.1039774 28.0836324,16.1039774 C28.3986324,14.9578836 28.570312,13.6027274 28.6026558,11.9980789 C28.594687,7.64386017 26.4751167,6.10495392 26.0681245,5.38190705 C26.6678902,2.08589142 25.9671089,0.587414861 25.6419136,0.0723757982 C24.440273,-0.347741389 21.4633589,1.15284455 19.8356245,2.20905549 C17.1848433,1.4476883 11.5785933,1.52034455 9.47613236,2.40593049 C5.59746048,-0.323132014 3.54562455,0.0945242357 3.54562455,0.0945242357 C3.54562455,0.0945242357 2.21882767,2.4311258 3.19429642,5.8492508 C1.91894486,7.44780549 0.966562047,8.57878205 0.966562047,11.5758524 C0.968905797,13.266282 1.17093705,14.7778836 1.62738236,16.0978836 Z" id="Shape"></path>
                    </g>
                </g>
            </g>
        </g>
    </g>
</svg>
