<svg width="42px" height="31px" viewBox="0 0 42 31" version="1.1" xmlns="http://www.w3.org/2000/svg" xmlns:xlink="http://www.w3.org/1999/xlink">
    <!-- Generator: Sketch 49 (51002) - http://www.bohemiancoding.com/sketch -->
    <desc>Created with Sketch.</desc>
    <defs></defs>
    <g id="Web-for-development" stroke="none" stroke-width="1" fill="none" fill-rule="evenodd">
        <g transform="translate(-195.000000, -1866.000000)" fill="#000000" fill-rule="nonzero" id="CTA" stroke="#000000" stroke-width="0.5">
            <g transform="translate(0.000000, 1583.000000)">
                <g id="Social-links" transform="translate(195.000000, 274.000000)">
                    <g id="upwork" transform="translate(0.000000, 9.000000)">
                        <path d="M32.256,3.08333333 C27.804,3.08333333 24.444,6 23.1,10.5833333 C21,7.33333333 19.32,3.66666667 18.396,0.5 L13.692,0.5 L13.692,12.75 C13.692,15.1666667 11.676,17.1666667 9.24,17.1666667 C6.804,17.1666667 4.788,15.1666667 4.788,12.75 L4.788,0.583333333 L0.252,0.583333333 L0.252,12.8333333 C0.252,17.9166667 4.368,22 9.408,22 C14.448,22 18.564,17.9166667 18.564,12.8333333 L18.564,10.75 C19.488,12.5833333 20.664,14.5833333 21.924,16.3333333 L18.984,29.9166667 L23.772,29.9166667 L25.788,20 C27.636,21.1666667 29.736,21.8333333 32.256,21.8333333 C37.38,21.8333333 41.58,17.6666667 41.58,12.3333333 C41.58,7.25 37.38,3.08333333 32.256,3.08333333 Z M32.256,17.1666667 C30.408,17.1666667 28.476,16.3333333 26.964,15.0833333 L27.468,13.25 L27.468,13.1666667 C27.804,11.1666667 28.896,7.83333333 32.34,7.83333333 C34.944,7.83333333 37.044,9.91666667 37.044,12.5 C36.96,15.0833333 34.692,17.1666667 32.256,17.1666667 Z" id="Shape"></path>
                    </g>
                </g>
            </g>
        </g>
    </g>
</svg>
