<svg width="31px" height="30px" viewBox="0 0 31 30" version="1.1" xmlns="http://www.w3.org/2000/svg" xmlns:xlink="http://www.w3.org/1999/xlink">
    <!-- Generator: Sketch 49 (51002) - http://www.bohemiancoding.com/sketch -->
    <desc>Created with Sketch.</desc>
    <defs></defs>
    <g id="Web-for-development" stroke="none" stroke-width="1" fill="none" fill-rule="evenodd">
        <g transform="translate(-271.000000, -1857.000000)" fill="#000000" fill-rule="nonzero" id="CTA">
            <g transform="translate(0.000000, 1583.000000)">
                <g id="Social-links" transform="translate(195.000000, 274.000000)">
                    <g id="linkedin" transform="translate(76.000000, 0.000000)">
                        <path d="M7.38095238,30 L0.984126984,30 L0.984126984,8.57142857 L7.38095238,8.57142857 L7.38095238,30 Z M30.8359788,30 L24.4391534,30 L24.4391534,18.5528571 C24.4391534,15.57 23.381545,14.085 21.2855185,14.085 C19.6244762,14.085 18.5711323,14.9164286 18.042328,16.5814286 C18.042328,19.2857143 18.042328,30 18.042328,30 L11.6455026,30 C11.6455026,30 11.7307937,10.7142857 11.6455026,8.57142857 L16.6947302,8.57142857 L17.0849365,12.8571429 L17.2171376,12.8571429 C18.5284868,10.7142857 20.6245132,9.26142857 23.4988201,9.26142857 C25.6844021,9.26142857 27.4520582,9.87214286 28.8017884,11.4064286 C30.1600476,12.9428571 30.8359788,15.0042857 30.8359788,17.8992857 L30.8359788,30 Z" id="Shape"></path>
                        <ellipse id="Oval" cx="4.18253968" cy="3.21428571" rx="3.30502646" ry="3.21428571"></ellipse>
                    </g>
                </g>
            </g>
        </g>
    </g>
</svg>
