<?xml version="1.0" encoding="UTF-8"?>
<svg width="22px" height="30px" viewBox="0 0 22 30" version="1.1" xmlns="http://www.w3.org/2000/svg" xmlns:xlink="http://www.w3.org/1999/xlink">
    <!-- Generator: Sketch 64 (93537) - https://sketch.com -->
    <title>Toptal Emblem Blue RGB white</title>
    <desc>Created with Sketch.</desc>
    <g id="Web-for-development" stroke="none" stroke-width="1" fill="none" fill-rule="evenodd">
        <g transform="translate(-368.000000, -2086.000000)" fill="#FFFFFF" id="Toptal-Emblem-Blue-RGB-white">
            <g transform="translate(368.000000, 2086.000000)">
                <path d="M21.147541,12.9485294 L8.2420903,0 L5.2414629,2.98897059 L9.62953637,7.38970588 L0,17.0073529 L12.9494966,30 L15.9115838,27.0441176 L11.4849702,22.5992647 L21.147541,12.9485294 Z M8.80367561,19.3125 C8.7155838,19.3400735 8.62749199,19.3400735 8.53940017,19.3125 C8.45130836,19.2849265 8.37973376,19.2463235 8.22557309,19.0863971 L6.48025403,17.3327206 C6.32609336,17.1783088 6.28204745,17.1011029 6.2600245,17.0128676 C6.23249581,16.9246324 6.23249581,16.8363971 6.2600245,16.7481618 C6.28755319,16.6599265 6.32609336,16.5882353 6.48575977,16.4338235 L11.9859924,10.9356618 C12.1401531,10.78125 12.2172334,10.7371324 12.3053252,10.7150735 C12.393417,10.6875 12.4815088,10.6875 12.5696006,10.7150735 C12.6576925,10.7426471 12.7292671,10.78125 12.8834277,10.9411765 L14.6287468,12.6948529 C14.7829075,12.8492647 14.8269534,12.9264706 14.8489763,13.0147059 C14.876505,13.1029412 14.876505,13.1911765 14.8489763,13.2794118 C14.8214476,13.3676471 14.7829075,13.4393382 14.623241,13.59375 L9.12300844,19.0919118 C8.96334203,19.2463235 8.88626169,19.2904412 8.80367561,19.3125 Z" id="Shape"></path>
            </g>
        </g>
    </g>
</svg>